<?xml version="1.0" standalone="no"?>
<!DOCTYPE svg PUBLIC "-//W3C//DTD SVG 20010904//EN"
 "http://www.w3.org/TR/2001/REC-SVG-20010904/DTD/svg10.dtd">
<svg version="1.0" xmlns="http://www.w3.org/2000/svg"
 width="408.000000pt" height="408.000000pt" viewBox="0 0 408.000000 408.000000"
 preserveAspectRatio="xMidYMid meet">
<metadata>
Created by potrace 1.11, written by Peter Selinger 2001-2013
</metadata>
<g transform="translate(0.000000,408.000000) scale(0.100000,-0.100000)"
fill="#000000" stroke="none">
<path d="M350 4074 c-94 -30 -178 -106 -209 -187 -20 -51 -20 -71 -18 -1852
l2 -1800 22 -45 c31 -63 88 -119 153 -149 l55 -26 1670 0 c1713 -1 1705 -1
1777 36 41 20 109 93 131 139 l22 45 0 1810 0 1810 -22 47 c-29 64 -101 132
-165 157 -52 20 -71 20 -1728 20 -921 -1 -1682 -3 -1690 -5z"/>
</g>
</svg>
